<svg xmlns="http://www.w3.org/2000/svg" viewBox="0 0 50 34" width="20px" height="20px"><defs><style>.cls-1{fill:#ffffff;}</style></defs><title>vedicastro_loder2</title><g id="Layer_2" data-name="Layer 2"><g id="Layer_1-2" data-name="Layer 1"><circle class="cls-1" cx="17.17" cy="17.03" r="4.88"/><circle class="cls-1" cx="32.97" cy="16.86" r="4.88"/><path class="cls-1" d="M17,34A17,17,0,0,1,17,.06a18.87,18.87,0,0,1,7,1.54l-3.1,2.19A11.66,11.66,0,0,0,17,3.27,13.76,13.76,0,1,0,30.06,21.91l3.08.65A17.38,17.38,0,0,1,17,34Z"/><path class="cls-1" d="M33,33.94a15.52,15.52,0,0,1-7-1.79l3-1.9a15.38,15.38,0,0,0,4,.48A13.76,13.76,0,0,0,33,3.21,14,14,0,0,0,20,11.86l-3.08-.47A17.15,17.15,0,0,1,23.3,3.06,17,17,0,1,1,33,33.94Z"/></g></g></svg>