<?xml version="1.0" encoding="utf-8"?>
<!-- Generator: Adobe Illustrator 22.0.0, SVG Export Plug-In . SVG Version: 6.00 Build 0)  -->
<svg version="1.1" id="Layer_1" xmlns="http://www.w3.org/2000/svg" xmlns:xlink="http://www.w3.org/1999/xlink" x="0px" y="0px"
	 viewBox="0 0 54 53" style="enable-background:new 0 0 54 53;" xml:space="preserve">
<style type="text/css">
	.st0{fill:#FFFFFF;}
</style>
<path class="st0" d="M36.1,25.1c0.2-2.6-7.1-5-7.1-5s-0.2-2,0.9-2.7c-0.7-1.3-2,3.3-2,3.3s-0.7-0.9-1.7,0c-0.4,0-0.5-3.7-1.5-3.6
	c0.4,1.5,0.3,3.7,0.3,3.7s-5.6,1.7-6.4,3.8c-0.9,2.1,1.8,9.9,8.5,10.2C33.6,35,35.9,27.7,36.1,25.1z"/>
<path class="st0" d="M35,22c0.5,0.2,1.2,1.4,1.6,1.4s4.7-3.4,5.1-4.4c0.3-0.9,0-1.2-0.4-1.8C40.1,17.8,34.5,21.8,35,22z"/>
<path class="st0" d="M36.1,15.4c0.8,0.6,2.6,2.9,2.6,2.9h0.1c0.7-0.4,1.8-1.4,2.3-1.4c0.5,0-4.8-9.2-10.5-8c4.6,1.7,5.1,4.1,3.8,4.8
	c-1.3,0.8-3.7-0.8-4.9-2.4C29.2,15.3,35.3,14.8,36.1,15.4z"/>
<path class="st0" d="M39.8,28.2c-0.7,0.4-1.4,0.6-2,0.8c-0.6,0.1-0.9,0-1.1-0.1c-0.1-0.1-0.1-0.1-0.3-0.1c-0.1-0.1-0.1-0.1-0.1-0.1
	l-0.9,1.8c0,0,0.1,0,0.1,0.1c0.1,0,0.3,0.1,0.6,0.2c0.3,0.1,0.6,0.1,1,0.1c0.4,0,0.8-0.1,1.1-0.3c0.7-0.3,1.5-0.7,2.2-1.2
	c0.4-0.2,0.7-0.5,1.1-0.8c0.4-0.3,0.7-0.5,1.1-0.9c0.4-0.3,0.7-0.7,0.9-1c0.3-0.4,0.6-0.7,0.8-1.1c0.5-0.7,0.9-1.4,1.2-2
	c0.6-1.2,0.9-2.1,0.9-2.1s-0.4,0.8-1.2,1.9c-0.4,0.6-0.8,1.2-1.4,1.8c-0.3,0.3-0.6,0.6-0.9,0.9c-0.3,0.3-0.7,0.6-1,0.8
	c-0.3,0.2-0.8,0.5-1.1,0.7C40.6,27.8,40.2,28,39.8,28.2z"/>
<path class="st0" d="M45.4,29.7c-0.2,0.2-0.4,0.3-0.7,0.4c-0.2,0.2-0.5,0.3-0.8,0.4c-0.3,0.1-0.6,0.2-1,0.3
	c-0.7,0.2-1.4,0.4-2.2,0.5c-1.5,0.2-3,0.3-4.2,0.3c-0.3,0-0.5,0-0.7-0.1c-0.2,0-0.5-0.1-0.4-0.1c0,0,0,0,0,0c0,0-0.1,0-0.1-0.1
	c-0.1,0-0.1-0.1-0.1-0.1l-1,1.7c0,0,0,0,0.1,0.1c0.1,0,0.1,0,0.2,0.1c0.1,0,0.3,0.1,0.4,0.1c0.4,0.1,0.5,0,0.8,0
	c0.3,0,0.6,0,0.9-0.1c1.2-0.1,2.8-0.5,4.3-1c0.8-0.2,1.5-0.6,2.2-0.9c0.3-0.2,0.7-0.3,1-0.5c0.3-0.2,0.6-0.4,0.8-0.6
	c0.2-0.2,0.4-0.4,0.6-0.6c0.1-0.2,0.3-0.3,0.4-0.5c0.2-0.3,0.3-0.5,0.3-0.5s-0.1,0.2-0.3,0.4C45.8,29.4,45.6,29.5,45.4,29.7z"/>
<path class="st0" d="M38,39.5c-0.1-0.3-0.2-0.7-0.4-1c-0.1-0.3-0.3-0.6-0.5-1c-0.7-1.2-1.7-2.3-2.4-3c-0.2-0.2-0.3-0.4-0.5-0.5
	c-0.1-0.1-0.3-0.3-0.3-0.3c0,0,0,0,0-0.1c0-0.1-0.1-0.1-0.1-0.1c0-0.1-0.1-0.1-0.1-0.1l-1.7,1.1c0,0,0,0,0.1,0.1
	c0,0,0.1,0.1,0.1,0.1c0.1,0.1,0.1,0.1,0.2,0.2c0.2,0.2,0.3,0.3,0.5,0.4c0.2,0.1,0.4,0.3,0.6,0.4c0.8,0.6,1.9,1.4,2.7,2.3
	c0.2,0.2,0.4,0.5,0.6,0.8c0.2,0.3,0.3,0.5,0.5,0.8c0.1,0.3,0.2,0.6,0.3,0.8c0.1,0.3,0.1,0.5,0.2,0.8c0,0.3,0,0.5,0,0.7
	c0,0.2,0,0.4,0,0.5c0,0.3-0.1,0.5-0.1,0.5s0.1-0.2,0.1-0.4c0-0.1,0.1-0.3,0.1-0.5c0-0.2,0.1-0.4,0.1-0.7c0-0.3,0-0.5,0-0.9
	C38.1,40.2,38.1,39.8,38,39.5z"/>
<path class="st0" d="M31.7,36.2c-0.1-0.2-0.1-0.4-0.1-0.6c0-0.1,0-0.1,0-0.2c0-0.1,0-0.1,0-0.1c0,0,0,0,0-0.1c0-0.1,0-0.1,0-0.1
	l-2,0.1c0,0,0,0,0,0.1c0,0,0,0.2,0.1,0.5c0,0.1,0.1,0.2,0.1,0.3c0,0.1,0.1,0.2,0.1,0.3c0.1,0.2,0.2,0.3,0.3,0.5
	c0.4,0.8,0.9,1.8,1.2,2.8c0.2,0.5,0.3,1.1,0.4,1.6c0.1,0.5,0.1,1,0.1,1.4c0,0.4-0.1,0.8-0.1,1c0,0.2-0.1,0.4-0.1,0.4
	s0.1-0.1,0.2-0.4c0.1-0.2,0.2-0.6,0.4-1c0.1-0.4,0.2-0.9,0.2-1.5c0-0.6,0-1.2,0-1.8C32.2,38.3,31.9,37.1,31.7,36.2z"/>
<path class="st0" d="M17.5,23.4c0.3,0,1.1-1.2,1.6-1.4c0.5-0.2-5.2-4.2-6.2-4.8c-0.4,0.7-0.7,0.9-0.4,1.8
	C12.8,20,17.2,23.4,17.5,23.4z"/>
<path class="st0" d="M15.3,18.3h0.1c0,0,1.8-2.2,2.6-2.9c0.8-0.6,6.9-0.1,6.5-4c-1.2,1.6-3.6,3.2-4.9,2.4c-1.3-0.8-0.8-3.1,3.8-4.8
	c-5.7-1.2-11,8-10.5,8C13.4,16.9,14.6,17.9,15.3,18.3z"/>
<path class="st0" d="M9.7,25.6c0.2,0.4,0.5,0.7,0.8,1.1c0.3,0.4,0.6,0.7,1,1c0.4,0.4,0.7,0.6,1.1,0.9c0.4,0.3,0.7,0.5,1.1,0.8
	c0.7,0.5,1.4,0.9,2.2,1.2c0.4,0.1,0.8,0.2,1.1,0.3c0.4,0,0.7,0,1-0.1c0.3-0.1,0.5-0.2,0.6-0.2c0.1,0,0.1-0.1,0.1-0.1l-0.9-1.8
	c0,0,0,0-0.1,0.1c-0.1,0.1-0.2,0.1-0.3,0.1c-0.2,0.1-0.5,0.2-1.1,0.1c-0.5-0.1-1.2-0.4-2-0.8c-0.4-0.2-0.7-0.4-1.1-0.6
	c-0.3-0.2-0.8-0.4-1.1-0.7c-0.3-0.2-0.7-0.5-1-0.8c-0.3-0.3-0.6-0.6-0.9-0.9c-0.5-0.6-1-1.3-1.4-1.8c-0.7-1.1-1.2-1.9-1.2-1.9
	s0.3,0.9,0.9,2.1C8.8,24.2,9.2,24.9,9.7,25.6z"/>
<path class="st0" d="M18.3,33.4c0.3,0,0.4,0,0.8,0c0.2,0,0.3-0.1,0.4-0.1c0.1,0,0.1-0.1,0.2-0.1c0.1,0,0.1-0.1,0.1-0.1l-1-1.8
	c0,0,0,0-0.1,0.1c0,0-0.1,0.1-0.1,0.1c0,0,0,0,0,0c0.1,0-0.2,0-0.4,0.1c-0.2,0-0.5,0-0.7,0.1c-1.1,0.1-2.6,0-4.2-0.3
	c-0.8-0.1-1.5-0.3-2.2-0.5c-0.3-0.1-0.7-0.2-1-0.3c-0.3-0.1-0.6-0.2-0.8-0.4c-0.2-0.1-0.5-0.3-0.6-0.4c-0.2-0.2-0.4-0.3-0.4-0.4
	C8,29,7.9,28.8,7.9,28.8S8,29,8.1,29.3c0.1,0.2,0.2,0.3,0.4,0.5c0.1,0.2,0.4,0.4,0.6,0.6c0.2,0.2,0.5,0.4,0.8,0.6
	c0.3,0.2,0.6,0.3,1,0.5c0.7,0.3,1.4,0.6,2.2,0.9c1.5,0.5,3.1,0.8,4.3,1C17.7,33.3,18,33.4,18.3,33.4z"/>
<path class="st0" d="M21.9,34.6C22,34.6,22,34.5,21.9,34.6l-1.6-1.2c0,0,0,0-0.1,0.1c0,0,0,0.1-0.1,0.1c0,0,0,0,0,0.1
	c0,0-0.1,0.2-0.3,0.3c-0.1,0.1-0.3,0.3-0.5,0.5c-0.7,0.8-1.7,1.8-2.4,3c-0.2,0.3-0.4,0.6-0.5,1c-0.2,0.3-0.2,0.7-0.4,1
	c-0.1,0.3-0.1,0.7-0.2,1c0,0.3,0,0.6,0,0.9c0,0.3,0.1,0.5,0.1,0.7c0,0.2,0.1,0.4,0.1,0.5c0.1,0.3,0.1,0.4,0.1,0.4s0-0.2-0.1-0.5
	c0-0.1-0.1-0.3,0-0.5c0-0.2,0-0.4,0-0.7c0-0.2,0.1-0.5,0.2-0.8c0.1-0.3,0.2-0.5,0.3-0.8c0.2-0.3,0.3-0.6,0.5-0.8
	c0.2-0.3,0.4-0.5,0.6-0.8c0.8-1,1.9-1.7,2.7-2.3c0.2-0.2,0.4-0.3,0.6-0.4c0.2-0.1,0.3-0.2,0.5-0.4c0.1-0.1,0.2-0.2,0.2-0.2
	C21.9,34.7,21.9,34.7,21.9,34.6z"/>
<path class="st0" d="M22.6,35.2c0,0.1,0,0.1,0,0.1c0,0,0,0,0,0.1c0,0.1,0,0.1,0,0.2c0,0.2-0.1,0.4-0.1,0.6c-0.2,0.8-0.5,2-0.6,3.2
	c-0.1,0.6-0.1,1.2,0,1.8c0,0.6,0.1,1.1,0.2,1.5c0.1,0.4,0.2,0.8,0.4,1c0.1,0.2,0.2,0.4,0.2,0.4s0-0.1-0.1-0.4
	c-0.1-0.2-0.1-0.6-0.1-1c0-0.4,0-0.9,0.1-1.4c0.1-0.5,0.2-1.1,0.4-1.6c0.3-1.1,0.8-2,1.2-2.8c0.1-0.2,0.2-0.4,0.3-0.5
	c0-0.1,0.1-0.2,0.1-0.3c0-0.1,0.1-0.1,0.1-0.3c0.1-0.2,0.1-0.4,0.1-0.5c0-0.1,0-0.1,0-0.1l-2-0.1C22.6,35.1,22.6,35.2,22.6,35.2z"/>
</svg>
