<?xml version="1.0" encoding="utf-8"?>
<!-- Generator: Adobe Illustrator 22.0.0, SVG Export Plug-In . SVG Version: 6.00 Build 0)  -->
<svg version="1.1" id="Layer_1" xmlns="http://www.w3.org/2000/svg" xmlns:xlink="http://www.w3.org/1999/xlink" x="0px" y="0px"
	 viewBox="0 0 53 53" style="enable-background:new 0 0 53 53;" xml:space="preserve">
<style type="text/css">
	.st0{fill:#FFFFFF;}
</style>
<path class="st0" d="M30.7,42.5c1.3,0,1.7,1.8,1.2,1.8c-0.6,0-2.5,0-2.8,0s-0.3-0.7-0.2-1.3c0.1-0.6-0.9-6.8-1.1-7.4
	c-0.2-0.6-1.3,0-6,0.1c-4.7,0-5.7-1.3-5.8-0.3c0,1-0.6,2.2-0.3,2.9c0.2,0.7,0.6,3.8,1,4.3c0.9-0.1,1.5,1.6,0.9,1.6
	c-0.6,0-2.1,0-2.4,0c-0.3,0-0.2-0.8-0.1-1.2c0-0.4-0.9-2.9-1.3-3.6c-0.5-0.7-0.6-4.1-0.6-4.1s-3,3.1-3,3.5c-0.1,0.5,0,4,0,4.4
	c1,0.1,1.4,1.5,0.9,1.5c-0.5,0-2.1,0-2.5,0c-0.4,0-0.2-1.4-0.1-1.6c0.1-0.3-0.5-3.2-0.5-4.4c0-1.2,2.3-4.7,2.3-5.6
	c0-1-0.8-2.9-0.7-5c0.2-3,2-4.6,5-4.6c5.6,0,5.4,2.1,10.8,1.3c6.5-1,11-2.1,9.9-5.1c0,0-0.6-1.2-0.4-1.8c0.1-0.6,0.4-0.9,0.4-0.9
	s-8-6.2-13.1-7.4c0.6-1.6,8.1,1.7,8.1,1.7s-1.7-2.4-7-4c5.6-1.9,13.3,9.1,13.3,9.1s4.6,1.7,7.9,8c0.2,1.7-0.7,2.1-1.6,1.9
	c-0.9-0.2-1.6-1-2.7-0.8c-1,0.2-5,5.4-4.9,6.3c0.1,0.9,1.2,5.1,1.4,5.7c0.2,0.7-0.4,2.4-0.3,2.8c0,0.4,0.3,0.4,0.5,1.1
	c0.2,0.7,0.1,1.8-0.8,2c-0.7-0.7-1.4-1.4-1.7-1.6c-0.3-0.3,0.4-0.8,0.4-0.9c0-0.2,0.2-2.3-0.2-3.1C34.1,36.8,32,34,32,34
	s-1.9,2.7-1.8,4.1C30.3,39.1,30.5,42.2,30.7,42.5z"/>
</svg>
