<?xml version="1.0" encoding="utf-8"?>
<!-- Generator: Adobe Illustrator 22.0.0, SVG Export Plug-In . SVG Version: 6.00 Build 0)  -->
<svg version="1.1" id="Layer_1" xmlns="http://www.w3.org/2000/svg" xmlns:xlink="http://www.w3.org/1999/xlink" x="0px" y="0px"
	 viewBox="0 0 54 53" style="enable-background:new 0 0 54 53;" xml:space="preserve">
<style type="text/css">
	.st0{fill:#FFFFFF;}
</style>
<path class="st0" d="M27.1,23c-1.4,3.3,5.7,3.6,8.9,5.2c3.2,1.6,4.7,5,5.4,5c4-5.3-2.2-12.6-2.2-12.6s-2.4-0.7-2.9-3
	c-0.5-2.3,1.7-5.7,1.3-4c-0.3,1.7,2.2,2.7,2.4,3.8c0.3,1.2-0.1,3.1-0.1,3.1s6.8,4.1,2.6,13.8c1.6,6.5-2,6.5-2,6.5s1.2,2.3-2.2,2.3
	c-3.3,0-5.3,0-8.3,0c-3,0-0.8-2.5,0.5-2.5c1.3,0,2.4,0,2.9,0c-0.2,0-4-0.3-3.2-2.9c-4.9,0.4-11.3-1.6-11.3-1.6s-3.1,7.4-5.4,7.4
	c-2.3-0.1-4.2,0.1-4-1.1c0.4-2.5,3.8-0.1,4.1-4.8c0.2-2.7,1.7-4.7,1.7-4.7s-4.3-2.9-2.9-11.1c-0.5,0-1.8,0.3-2.2-0.6
	c-0.4-0.8,0-1.8,0-1.8s-1.8-2.4-1-3.8c0.8-1.4,3.9-1.8,5.4-1.9c0.6-5.7,3.1-5.6,7-3.9C28.3,9,30,18.9,27.1,23z"/>
</svg>
