<?xml version="1.0" encoding="utf-8"?>
<!-- Generator: Adobe Illustrator 22.0.0, SVG Export Plug-In . SVG Version: 6.00 Build 0)  -->
<svg version="1.1" id="Layer_1" xmlns="http://www.w3.org/2000/svg" xmlns:xlink="http://www.w3.org/1999/xlink" x="0px" y="0px"
	 viewBox="0 0 53 53" style="enable-background:new 0 0 53 53;" xml:space="preserve">
<style type="text/css">
	.st0{fill:#FFFFFF;}
</style>
<path class="st0" d="M42.2,31.4l-3.6-11.3h-0.9v-0.6c1.8-0.4,1.8-2.2,1.8-2.2s-0.7,0.8-1.8,1.1V18h-0.7v0.6c0,0-0.1,0-0.1,0
	c-1.6,0-2.4-2.7-4.4-2.7c-1.9,0-4,1.1-5.4,1.3v-3.1c1-0.2,1.7-1,1.7-2c0-1.1-0.9-2-2-2c-1.1,0-2,0.9-2,2c0,1.1,0.8,1.9,1.9,2v3
	c-1.4-0.2-3.4-1.3-5.3-1.3c-2,0-2.8,2.7-4.4,2.7c-0.1,0-0.3,0-0.4,0V18h-0.7v0.4c-1-0.4-1.5-1-1.5-1s0,1.6,1.5,2.1v0.7h-0.9
	l-3.7,11.3H9.1c0,0,1.5,2.9,6.9,2.9c5.4,0,6.9-2.9,6.9-2.9H21l-3.6-11.3h-0.9v-0.5c0.1,0,0.3,0,0.5,0c2.7,0,3.1-1.7,4.5-1.7
	c1.3,0,2.9,1.6,4.8,2c0.1,0,0.5,0,0.4,0l-0.1,6.3l-1.2,2.5l0,7.4h-3.3v1.3l-2.7,4.4h15.3l-3.3-4.5v-1.3h-2.9v-7.3l-1.2-2.6l0-6.3
	c0.1,0,0.1,0,0.2,0c1.9-0.3,3.5-2,4.8-2c1.5,0,1.9,1.7,4.5,1.7c0.1,0,0.1,0,0.2,0v0.5H36l-3.7,11.3h-2.1c0,0,1.5,2.9,6.9,2.9
	c5.4,0,6.9-2.9,6.9-2.9H42.2z M15.8,31.4H12l3.4-10.5h0.4V31.4L15.8,31.4z M16.9,20.9l3.4,10.5h-3.8V20.9H16.9z M36.9,31.4h-3.8
	l3.4-10.5h0.4L36.9,31.4L36.9,31.4z M37.7,31.4V20.9h0.4l3.4,10.5L37.7,31.4z"/>
</svg>
