<?xml version="1.0" encoding="utf-8"?>
<!-- Generator: Adobe Illustrator 22.0.0, SVG Export Plug-In . SVG Version: 6.00 Build 0)  -->
<svg version="1.1" id="Layer_1" xmlns="http://www.w3.org/2000/svg" xmlns:xlink="http://www.w3.org/1999/xlink" x="0px" y="0px"
	 viewBox="0 0 54 53" style="enable-background:new 0 0 54 53;" xml:space="preserve">
<style type="text/css">
	.st0{fill:#FFFFFF;}
</style>
<path class="st0" d="M25.8,24.7c0,0,0.2,0.4,0.4,0.4c1.3,0.3,7,1.6,8.6,0.6c0.9-0.6-2.3-3.3-2.3-3.3s3.8,1.8,4.4,1.1
	c2.3-3.8-3.7-10-5.2-11.5c-0.4-0.4-0.7-0.1-0.7-0.1l-7.2,5L25.8,24.7z M32.5,17.6c0.6,0,1.1,0.5,1.1,1.1c0,0.6-0.5,1.1-1.1,1.1
	c-0.6,0-1.1-0.5-1.1-1.1C31.3,18.1,31.8,17.6,32.5,17.6z"/>
<path class="st0" d="M24,24.3c0.8,0,0.6-0.8,0.6-0.8l-1.8-7.2l7.7-5c0,0,0.5-0.3,0-0.6c-1.2-1-4.8-4-6-3.9c-1.5,0.1-1.1,4-2.2,3.7
	C11.3,11,7.4,29.9,7.9,30.6c0.5,0.6,0.9,1.1,1.9,0.4c1,2.1-1.3,6.8-2,8.7c-0.2,0.6,0.3,0.4,0.6,0.1c1.7-1.7,2.9-2.3,3.6-2.2
	c0.7,0.1,2.2,0.7,3.2,1.2c0.4,0.3,0.9,0.2,0.5-0.4C8.5,23.4,20.7,24,24,24.3z"/>
<path class="st0" d="M27.9,27.8c0,0-0.2-0.4-0.4-0.4c-1.3-0.3-7-1.6-8.6-0.6c-0.9,0.6,2.3,3.3,2.3,3.3s-3.8-1.7-4.4-1.1
	c-2.4,3.8,3.7,10,5.2,11.5c0.4,0.4,0.7,0.1,0.7,0.1l7.2-5L27.9,27.8z M21.3,34.9c-0.6,0-1.1-0.5-1.1-1.1s0.5-1.1,1.1-1.1
	c0.6,0,1.1,0.5,1.1,1.1S21.9,34.9,21.3,34.9z"/>
<path class="st0" d="M45.3,12.7c-1.7,1.7-2.9,2.3-3.6,2.2c-0.7-0.1-2.2-0.7-3.2-1.2c-0.4-0.3-0.9-0.2-0.5,0.4
	c7.1,14.9-5,14.3-8.4,14c-0.8,0-0.6,0.8-0.6,0.8l1.8,7.2l-7.7,5c0,0-0.5,0.3,0,0.6c1.2,1,4.8,4,6,3.9c1.5-0.1,1.1-4,2.2-3.7
	c11-0.5,14.9-19.5,14.4-20.1c-0.5-0.6-0.9-1.1-1.9-0.4c-1-2.1,1.3-6.8,2-8.7C46.2,12.2,45.7,12.4,45.3,12.7z"/>
</svg>
