<?xml version="1.0" encoding="utf-8"?>
<!-- Generator: Adobe Illustrator 22.0.0, SVG Export Plug-In . SVG Version: 6.00 Build 0)  -->
<svg version="1.1" id="Layer_1" xmlns="http://www.w3.org/2000/svg" xmlns:xlink="http://www.w3.org/1999/xlink" x="0px" y="0px"
	 viewBox="0 0 53 53" style="enable-background:new 0 0 53 53;" xml:space="preserve">
<style type="text/css">
	.st0{fill:#FFFFFF;}
</style>
<path class="st0" d="M40.8,36.5l-0.3-20.7c0.3-0.1,0.5-0.3,0.7-0.5c1.1-1.3,1.7-6.6-1.5-7.4c-3.2-0.9-3,3-3,3.4
	c1.8-1.3,2.1,0.1,1.7,1.3c-0.3,1.1-7.3-1.1-10.2,1.6c-2.3,2.1-3.7,7-4.2,8.9l-7.9-7.5l3-1.1L9.1,11l3.8,9.9l1.2-3.8l7.7,7.3
	c-2.2,0.6-5.7,1.8-7.4,3.7c-2.6,2.9-0.4,9.8-1.6,10.2c-1.1,0.3-2.5,0-1.3-1.7c-0.4,0-4.3-0.2-3.4,3c0.7,2.8,4.7,2.8,6.6,2h23.2
	l3.5,3l0.6-2.8l2.7-0.6L40.8,36.5z M32.1,18.1c1-0.7,4.6-1.1,7-1.8l0.3,19.8l-1.9-0.3L26.7,25.7C27.8,23.9,30.9,18.9,32.1,18.1z
	 M16.1,40.1c0.9-2.2,1.3-7,2.1-8.1c0.7-1,4.4-3.4,6.6-4.7l11.1,10.5l0.3,2.2l0.1,0.1H16.1L16.1,40.1z"/>
</svg>
