<?xml version="1.0" encoding="utf-8"?>
<!-- Generator: Adobe Illustrator 22.0.0, SVG Export Plug-In . SVG Version: 6.00 Build 0)  -->
<svg version="1.1" id="Layer_1" xmlns="http://www.w3.org/2000/svg" xmlns:xlink="http://www.w3.org/1999/xlink" x="0px" y="0px"
	 viewBox="0 0 53 53" style="enable-background:new 0 0 53 53;" xml:space="preserve">
<style type="text/css">
	.st0{fill:#FFFFFF;}
</style>
<path class="st0" d="M16.8,31.6c0.2-0.1,0.5-0.1,0.7-0.1c0.5-0.1,1-0.1,1.5,0l0.6,0l0.1-0.6c0-0.2,0.1-0.4,0.2-0.6
	c0.1-0.2,0.2-0.5,0.3-0.7c0.2-0.4,0.6-0.9,0.9-1.2c0.7-0.7,1.6-1.2,2.5-1.2H24l0.1-0.3c0.2-0.4,0.5-0.8,0.9-1.1
	c0.5-0.3,1-0.5,1.6-0.6c1.1-0.3,2.3-0.4,3.6-0.4c-1.2-0.3-2.4-0.4-3.7-0.3c-0.6,0.1-1.3,0.2-1.9,0.5c-0.5,0.2-1,0.6-1.3,1.2
	c-0.6,0-1.1,0.1-1.6,0.4c-0.6,0.3-1.1,0.6-1.6,1.1c-0.4,0.4-0.8,0.9-1.1,1.5c-0.2,0.3-0.3,0.5-0.4,0.9c0,0.1-0.1,0.3-0.1,0.4
	c-0.9,0-1.9,0.2-2.8,0.5c-1.1,0.4-2.1,1.1-2.8,1.9c-0.8,0.8-1.3,1.9-1.7,2.9c-0.3,1-0.5,2.1-0.5,3.2c0.3-1,0.6-2,1.1-3
	c0.5-0.9,1.1-1.8,1.8-2.4c0.7-0.7,1.6-1.2,2.5-1.5C16.4,31.7,16.6,31.6,16.8,31.6z"/>
<path class="st0" d="M12.8,31c0.7-0.5,1.5-0.8,2.3-1c0.8-0.2,1.6-0.3,2.5-0.2l0.6,0l0.1-0.7c0-0.1,0.1-0.3,0.1-0.5
	c0.1-0.2,0.2-0.4,0.3-0.6c0.2-0.4,0.5-0.7,0.8-1c0.3-0.3,0.7-0.6,1-0.8c0.1,0,0.2-0.1,0.3-0.1c0.1,0,0.2-0.1,0.3-0.1
	c0.2-0.1,0.4-0.1,0.6-0.1l0.4,0l0.1-0.3c0.2-0.6,0.8-1.1,1.5-1.4c0.8-0.3,1.6-0.3,2.5-0.3c-0.8-0.3-1.7-0.4-2.6-0.3
	c-0.5,0.1-0.9,0.2-1.4,0.5c-0.3,0.2-0.6,0.5-0.8,0.8c-0.2,0-0.4,0-0.6,0.1c-0.1,0-0.3,0.1-0.4,0.1c-0.1,0-0.3,0.1-0.4,0.2
	c-0.5,0.2-1,0.6-1.4,0.9c-0.4,0.4-0.7,0.8-1,1.3c-0.1,0.2-0.3,0.5-0.4,0.7c0,0.1-0.1,0.2-0.1,0.3c-0.3,0-0.6,0-0.9,0.1
	c-0.5,0.1-1,0.2-1.4,0.3c-0.9,0.3-1.8,0.8-2.6,1.4c-0.7,0.6-1.3,1.4-1.8,2.2c-0.4,0.8-0.7,1.7-0.8,2.6C10.3,33.4,11.4,32,12.8,31z"
	/>
<path class="st0" d="M9.5,30.8c-0.3,0.8-0.6,1.7-0.5,2.6c0.5-1.6,1.5-3.1,2.8-4c0.6-0.4,1.4-0.8,2.1-0.9c0.4-0.1,0.8-0.2,1.2-0.2
	c0.4,0,0.8,0,1.2,0l0.6,0l0.1-0.7c0-0.1,0.1-0.3,0.1-0.5c0.1-0.2,0.2-0.4,0.3-0.5c0.2-0.4,0.5-0.7,0.8-0.9c0.2-0.1,0.3-0.3,0.5-0.4
	c0.2-0.1,0.4-0.2,0.5-0.3c0.2-0.1,0.4-0.1,0.6-0.1c0.2,0,0.4,0,0.6-0.1l0.4-0.1l0.1-0.3c0.1-0.5,0.7-0.8,1.4-1
	c0.7-0.2,1.4-0.3,2.2-0.3c-0.7-0.3-1.5-0.4-2.3-0.4c-0.4,0-0.8,0.1-1.2,0.3c-0.3,0.1-0.6,0.4-0.8,0.6c-0.2,0-0.3,0-0.5,0
	c-0.3,0-0.5,0.1-0.8,0.2c-0.3,0.1-0.5,0.2-0.8,0.3c-0.1,0.1-0.2,0.1-0.4,0.2c-0.1,0.1-0.2,0.1-0.3,0.2c-0.2,0.2-0.4,0.3-0.6,0.5
	c-1.7-0.6-8.6-3.1-5.3-7c3.7-4.4,7.9-4.2,7.9-4.2s2.9,2.3,3.8,1.6c-2-1.7-0.6-1.8-0.6-1.8s1.7-0.1,3.3,1.7c0.2-1.6-3.3-3.5-4-3.5
	c-0.7-0.1-1.5-0.4-2.8,0.6c-2.2-0.6-7.9,1-10.7,4.9c-3,5.5,2.2,9,4.1,10.1c-0.5,0.3-1.1,0.6-1.5,1C10.4,29.2,9.8,29.9,9.5,30.8z"/>
<path class="st0" d="M42.1,24.7c-2.2-1.2-3.4-0.4-4.7,0.2c-0.4,0.1-4-0.7-6.2-0.3c-2.1,0.4-6.7,2.3-7,2.5c0,0,0,0,0,0c0,0,0,0,0,0h0
	c-0.7,0.3-3.9,2.3-3.8,4.2c-0.2,0.2-0.4,0.3-0.6,0.5c-1.6,1.3-4.3,3.5-3.8,6.1c0.7,3.4,4.6,5,4.7,5.1c0,0-0.1,3.1,4.9,4.2
	c5.4,1.2,8.7-3.6,8.7-3.6s-6.9,3.1-7.8,0.9c-0.5-1,3.6-1.9,3.4-2.6c-1.8-0.6-4.6,0.1-4.5,0.6c-0.4-1.5-3.8-1.1-3.8-1.1
	s-3.2-1.4-3.7-3.8c-0.3-1.6,1.9-3.3,3.2-4.4c0.7-0.5,1-0.8,1.2-1.2c0.8,0.2,1.6,0.3,1.8,0.3c0,0,0,0,0,0c0.2,0.5,0.6,0.9,1.6,1.1
	c2.1,0.2,2.5-1,2.7-0.8c1.9,2.5,5.7,0.4,5.7,0.4s-4.7-0.5-4-2.5c0.6-2,3.4-1.3,4-0.8c0.4-1.8-4.2-1.8-4.3-1.3
	c-1.1-1.3-2.1-1.3-3-0.9c-0.1,0-0.3-0.1-0.5-0.1c0.7-0.3,3.1-1.3,5.4-1.7c2.7-0.5,6.4,0.7,6.4,1.5c0,0.8,2.3,2.7,4,2.5
	c-1.4-1.4-1.6-2.5-0.8-2.9c0.7-0.4,3.3,1,4.4,2.9C45.7,28.4,44.3,25.9,42.1,24.7z"/>
</svg>
