<?xml version="1.0" encoding="utf-8"?>
<!-- Generator: Adobe Illustrator 22.0.0, SVG Export Plug-In . SVG Version: 6.00 Build 0)  -->
<svg version="1.1" id="Layer_1" xmlns="http://www.w3.org/2000/svg" xmlns:xlink="http://www.w3.org/1999/xlink" x="0px" y="0px"
	 viewBox="0 0 54 53" style="enable-background:new 0 0 54 53;" xml:space="preserve">
<style type="text/css">
	.st0{clip-path:url(#SVGID_2_);}
	.st1{fill:#FFFFFF;}
</style>
<g>
	<defs>
		<rect id="SVGID_1_" x="0.9" y="0" width="52.4" height="52.4"/>
	</defs>
	<clipPath id="SVGID_2_">
		<use xlink:href="#SVGID_1_"  style="overflow:visible;"/>
	</clipPath>
	<g class="st0">
		<path class="st1" d="M21.4,18.9c-1-0.9-6-5.7-9.8-6.5c-1.2-2.9-2.6-3-2.6-3s2.2-5.3-6.6-5.1C7.9,7.1,6.8,7.7,6,9.6
			c-3.2,0.8-1.7,5-2.4,5.8C2.9,16.1,0.5,17,1,18.4c0.5,1.5,5.6,2,6.5,2.4c3.2,1.3,1.3,6.5,2.3,8.5c1.1,2,1.5,6.5,1.5,6.5
			s-1.1,3.5-1.2,4.6c-0.2,1.4,0,2.4-0.2,3.3c-0.7,0.8-1.3,2.1-1.3,2.1l3.2,0.1c0,0,0.3-1.4,0-2.1c0.1-0.8,1.7-7.1,3-6.9
			c0.7-0.2,1.7,7.1,0.8,7.1c-1.1,0.4-1.2,2.2-1.2,2.2l2.9,0c0,0-0.1-1.5,0.5-1.6c0.4-0.8,0.2-3.5,0.2-3.8c0-0.3-0.4-4.3-0.4-4.3
			s3.7-2.6,4.8-2.2c4.9,1.2,13.4-1.6,14.2-2.2c-0.5,0.2,1.8,4.8,1.7,5.6c-0.1,0.8-2.2,4.3-2.5,5.2c-1.2,0.6-0.4,2-0.4,2l2.6,0.1
			c0,0,0-1.5,0.5-1.5c0.4,0,0.9-2.9,1.4-3.8c0.6-0.9,2.7-4.1,1.7-4.5c-1-0.4,5.3,6.7,5.8,7.6c0.3,0.5,0.1,2.2-0.1,3.5
			c-0.7,0.4-0.3,1.9-0.3,1.9h2c0,0,0.1-1.3,0.5-1.5c0.1-0.3,0.3-0.9,0.3-0.9s-0.2-6.1-3.5-9.6c1.4-4.4-0.8-12-0.8-12
			s2.7,1.3,2.4,2.5c-0.4,3.1,2.1,2.3,1.9,5.4c-0.5,2.5,2.3,3.4,3.5,4.2c0-1.1-0.5-3.2-2.2-4c0.3-3.6-1.9-4.5-1.8-5.7
			c0.2-5.9-3.3-4.6-5.2-5.1C42.5,20.2,27.4,21,27.4,21S23.1,19.8,21.4,18.9z"/>
	</g>
</g>
</svg>
