<?xml version="1.0" encoding="utf-8"?>
<!-- Generator: Adobe Illustrator 22.0.0, SVG Export Plug-In . SVG Version: 6.00 Build 0)  -->
<svg version="1.1" id="Layer_1" xmlns="http://www.w3.org/2000/svg" xmlns:xlink="http://www.w3.org/1999/xlink" x="0px" y="0px"
	 viewBox="0 0 53 53" style="enable-background:new 0 0 53 53;" xml:space="preserve">
<style type="text/css">
	.st0{fill:#FFFFFF;}
</style>
<path class="st0" d="M43.4,21.5c0,0,0.6-0.2,0.6-0.4c-0.3,0.2-0.9-0.4-0.9-0.4s-0.3-1.8-0.3-2.4c0-0.7-0.1-1.3-0.1-1.3
	s0.4,0.4,0.9,0c-0.9-0.5-0.9-1.1-0.8-1.5c0.1-0.4,0.9-3.3-0.7-4.7c-1-0.9-1.6-0.1-1.6-0.1s-0.2-0.3-0.3-0.2c-0.2,0-0.3,0.2-0.3,0.2
	s-0.1-0.3-0.3-0.3c-0.2,0-0.2,0.2-0.2,0.2s-0.2-1-2.3-1.9c-2.1-0.9-4.8,0.5-5.4,1c-0.6,0.5-0.8,0.6-0.6,1.2c0.1,0.2,0.2,0.3,0.3,0.3
	c-0.4,1-0.1,2.5,0,2.7c0.1,0.2,0,0.6-0.1,0.8c-0.3,0.4-0.6,0.6-0.7,0.9c-0.2,0.4,0.6,0.5,0.6,0.5v0.2c0,0-0.3,0.2-0.2,0.4
	c0.1,0.3,0.6,0.2,0.6,0.2S31,17,31,17.3c0,0.2,0.2,0.3,0.2,0.3s-0.5,0.9,0.2,1.1c0.7,0.2,2.4-0.9,2.6,0.1c0.1,0.5,0.2,1.4,0.2,1.9
	c-0.1,0-0.1,0.1-0.2,0.1c-4.9-1.2-9.7,5.6-12.1,5.7c-2.2,0.2-13,1.9-13,1.9v15.6c0,0,24.4,0,25.2,0c0.8,0,0.2-3.6,0.2-5.6
	c0.1-1.9,4-7.6,4.6-7.7c0.6-0.1,0,13.3,0,13.3h2.6c0,0,0.1-15.3,0-19.7c0.9,0.3,1.4-0.2,1.4-0.5c-0.7,0.4-0.9-0.4-0.9-0.4
	s1.2,0.4,1.2-0.4c-1,0.3-1.2-1.5-1.2-1.5s1.9,1.9,2.2-0.1C43.7,22.3,43.4,21.5,43.4,21.5z M28.1,29.6c1,2-0.3,4.9-0.4,5.9
	c-0.1,1-3.2,1.3-5.5,1.1c-1.8-0.1-6.3-4.4-8.5-6.1c1.8-0.5,7.9-1.3,9.3-1.3c1.5-0.1,4.9-3.8,5.9-3.5C30,26,27,27.3,28.1,29.6z
	 M37.8,20.8c0-0.9,0.3-1.7,1.3-1.7c0.4-0.1,0.6,1.4,0.9,2.7C39.1,21.2,38,20.8,37.8,20.8z"/>
</svg>
